<?xml version="1.0" standalone="no"?>
<!DOCTYPE svg PUBLIC "-//W3C//DTD SVG 20010904//EN"
 "http://www.w3.org/TR/2001/REC-SVG-20010904/DTD/svg10.dtd">
<svg version="1.0" xmlns="http://www.w3.org/2000/svg"
 width="2560.000000pt" height="1304.000000pt" viewBox="0 0 2560.000000 1304.000000"
 preserveAspectRatio="xMidYMid meet">

<g transform="translate(0.000000,1304.000000) scale(0.100000,-0.100000)"
fill="#000000" stroke="none">
<path d="M2550 11798 c-84 -365 -155 -668 -157 -675 -4 -9 357 -13 1624 -16
1777 -3 1722 -2 2058 -63 278 -50 476 -111 682 -209 408 -195 654 -474 739
-840 29 -122 26 -432 -4 -573 -101 -462 -347 -843 -734 -1135 -448 -338 -1058
-544 -1818 -613 -171 -15 -990 -32 -990 -20 0 3 151 664 335 1467 184 803 335
1465 335 1470 0 5 -460 9 -1175 9 -646 0 -1175 -2 -1175 -5 0 -2 -223 -966
-495 -2141 -272 -1175 -495 -2142 -495 -2150 0 -12 248 -14 1683 -14 1911 0
2084 4 2542 61 1285 159 2512 671 3361 1402 146 126 399 386 508 522 242 302
417 622 525 958 69 217 76 277 75 657 0 261 -4 364 -17 465 -33 244 -78 432
-153 638 -31 85 -27 129 12 135 29 4 59 -33 92 -118 17 -41 503 -1441 1082
-3110 579 -1669 1053 -3036 1055 -3038 1 -1 1218 1399 2704 3112 1485 1713
2705 3117 2709 3120 5 3 719 6 1588 8 1223 2 1605 0 1694 -10 321 -35 541 -79
765 -153 797 -265 1150 -811 994 -1538 -127 -587 -518 -1055 -1134 -1356 -423
-207 -893 -328 -1465 -375 -69 -6 -314 -13 -544 -17 l-419 -6 7 28 c22 87 668
2865 673 2893 l6 32 -1174 0 -1175 0 -497 -2147 c-274 -1182 -497 -2151 -497
-2155 0 -12 3338 -9 3605 2 273 12 496 32 735 66 1237 175 2380 656 3215 1352
132 111 427 410 528 537 265 330 447 674 542 1020 181 662 67 1273 -338 1814
-91 122 -331 364 -465 470 -590 465 -1431 771 -2382 865 -330 33 -554 36
-3101 36 l-2556 0 -450 -542 c-1140 -1376 -1492 -1811 -1995 -2470 -324 -424
-577 -781 -656 -927 -45 -82 -44 -82 -57 24 -30 240 -262 1034 -561 1915 -59
173 -232 693 -385 1155 l-278 840 -4489 3 -4488 2 -154 -662z"/>
<path d="M10525 4819 c-4775 -99 -8627 -616 -9645 -1293 -990 -659 799 -1328
4605 -1720 2691 -278 6205 -373 9440 -256 4231 154 7502 641 8448 1257 99 65
211 178 242 244 388 835 -3506 1579 -9155 1749 -986 30 -2973 39 -3935 19z
m1950 -1148 c675 -52 1141 -130 1475 -246 186 -65 327 -152 365 -226 19 -36
19 -92 0 -128 -73 -143 -440 -282 -985 -376 -699 -120 -1727 -151 -2585 -80
-967 81 -1619 278 -1661 501 -4 24 0 46 16 79 108 223 865 414 1875 475 94 6
195 12 225 14 116 8 1142 -3 1275 -13z"/>
</g>
</svg>
